<?xml version="1.0" encoding="UTF-8"?>
<svg id="Layer_1" data-name="Layer 1" xmlns="http://www.w3.org/2000/svg" viewBox="0 0 1000 1000">
  <defs>
    <style>
      .cls-1 {
        fill: #2e2d2c;
      }

      .cls-1, .cls-2, .cls-3, .cls-4 {
        stroke-width: 0px;
      }

      .cls-5 {
        letter-spacing: -.09em;
      }

      .cls-2 {
        fill: #e62e33;
      }

      .cls-3, .cls-6 {
        fill: #f7a81b;
      }

      .cls-6 {
        font-family: Cheese-Sauce, 'Cheese Sauce';
        font-size: 61.66px;
      }

      .cls-4 {
        fill: #fff;
      }
    </style>
  </defs>
  <path class="cls-4" d="M235.17,310.01s32.12-14.65,47.41-4.27c15.29,10.39,22.18,27.97,26.76,40.21,4.59,12.23,4.89,58.7,4.89,58.7l1.5,177.07,21.66,28.18,12.69,41.83-18.53,39.63s-45.15,40.57-71.15,46.4c-26,5.82-88.91,14.79-109.35-35.47-20.44-50.25-13.76-72.91-22.94-90.37-9.18-17.45-41.29-25.1-44.35-24.34s29.82-15.41,29.82-15.41h62.7l19.28-3.17,29.77-29.33v-208.26l9.83-21.41Z"/>
  <g>
    <path class="cls-1" d="M215.66,522c-21.49,24.71-23.59,24.08-39.58,44.3-37.96-13.23-76.94-16.61-103.52,22.78-5.07,6.35,2.83,15.14,9.64,10.27,20.28-11.37,41.5,7.14,43.09,27.95.12.68.17,1.26.16,1.77-.03,1.16,3.2,23.24,3.39,24.38l2.49,15.83c7.07,67.34,82.44,100.45,143.63,73.1,10.7-4.78,29.68-26.81,34.4-28.12,72.21-22.02,61.04-103.98,14.05-146.71-2.37-39.39-3.06-51.19-2.8-93.85,0-1.73-.86-3.9,1.81-4.74,42.34-20.78-3.32-66.75,8.96-67.8,11-4.37,64.2-12,49.79-29.78-17.08-10.87-38.48-11.62-57.97-14.66-2.53-.34-3.72-.99-4.2-3.74-1.67-9.54-5.86-18-12.37-25.15-3.86-17.93,27.31-38.01,3.79-61.35-8.26-7.97-19.68-9.57-31.6-4.02-3.06,1.43-4.11.69-5.56-2.06-9.49-20.48-41.88-17.88-48.7,3.37-.95,7.98-3.24,8.29-10.47,6.84-17.57-.6-30.49,14.14-26.79,30.64,1.31,17.09,29.73,25.46,29.54,36.58-3.19,53.69-1.16,69.75-1.56,114.35l.38,69.84ZM106.01,580.88c17.13-10.34,38.04-8.85,55.5-.73,5.32,2.68-17.28,26.53-20.01,33.18-7.11-16.34-17.95-27.89-35.49-32.45ZM251.37,736.01c-46.7,13.55-94.01-18.19-102.06-63.56,29.08,17.49,68.12,10.94,86.6-18.15,5.71-10.04,20.68-33.44,4.91-39.92-9.05-.82-8.48,11.02-11.12,16.92-9.36,27.22-38.05,40.91-64.07,30.55-9.09-4.3-24.28-13.34-22.8-24.23,18.26-21.43,31.91-46.35,50.93-67.22,12.4-13.6,24.91-27.01,40.47-37.15,8.18-5.03,4.22-16.19-7.35-13.32-.45-61.51.09-93.92-.3-155.44-.09-23.47,16.77-36.56,31.28-39.3,22.46-4.23,43.7,12.15,45.79,35.23,7.29,46.53-47.63,76.87.14,112.39.53,74.09-.77,119.06.29,193.13.58,38.93-28.36,63.03-52.74,70.06ZM321.12,604.63c.65-3.73-.33-7.4.26-11.13,26.92,24.95,36.69,75.01-3.18,99.7,4.75-29.5,1.99-59.09,2.91-88.56ZM323.41,446.89c-4.8,10.83-19.88,8.5-22.97-2.17-3.24-14.32,7.08-25.46,12.01-38.67,4.29,13.84,16.33,26.33,10.96,40.84ZM320.32,387.16c1.07-4.31-.72-12.18,3.61-13.74,10.6,1.64,19.61,1.85,30.88,4.57-12.14,3.36-23.19,6.85-34.48,9.17Z"/>
    <path class="cls-2" d="M312.49,405.2c3.68,10.21,9.31,18.73,11.87,28.55,1.2,4.6,1.69,9.17-.55,13.64-2.59,5.15-7.05,7.83-12.33,7.36-5.18-.47-9.76-4.48-11.39-9.6-1.98-6.2-.25-11.96,2.09-17.52,3.09-7.32,6.63-14.46,10.32-22.42Z"/>
    <path class="cls-3" d="M319.99,371.45c10.6,1.64,23.55,3.82,34.82,6.55-12.14,3.36-23.19,6.85-34.48,9.17l-.33-15.72Z"/>
    <path class="cls-1" d="M264.85,378.96c-6.59-.6-12.17-4.04-12.15-12.34.02-6.91,5.61-12.57,12.4-12.49,6.68.07,12.43,5.77,12.4,12.28-.03,7.11-5.54,12.57-12.66,12.55Z"/>
    <path class="cls-2" d="M231.29,317.13c-4.29,3.57-10.66,2.99-14.23-1.3-4.9-7.16-21.96-19.88-10.93-28.91,4.29-3.57,10.66-2.99,14.23,1.3,4.9,7.16,21.96,19.88,10.93,28.91Z"/>
    <path class="cls-2" d="M256.93,299.6c-5.37,1.51-10.95-1.62-12.46-6.99-1.98-8.12-9.53-23.22,2.98-26.71,5.37-1.51,10.95,1.62,12.46,6.99,1.98,8.12,9.53,23.22-2.98,26.71Z"/>
    <path class="cls-2" d="M283.12,303.93c-4.72-2.98-6.12-9.22-3.14-13.94,4.37-6.91,10.4-20.37,20.71-13.85,4.72,2.98,6.12,9.22,3.14,13.94-4.37,6.91-10.4,20.37-20.71,13.85Z"/>
  </g>
  <path class="cls-1" d="M494.93,414.62c4.84,1.88,8.89,4.8,12.19,8.76,3.29,3.96,5.94,8.56,7.96,13.8,2.01,5.24,3.56,10.91,4.63,17.02,1.07,6.11,1.85,12.26,2.32,18.43.47,6.18.73,12.18.81,18.03.06,5.84.16,11.11.3,15.81l-20.95.4c0-2.82-.1-6.24-.3-10.27-.2-4.03-.44-8.22-.71-12.59-.27-4.36-.64-8.73-1.11-13.09-.47-4.36-.97-8.36-1.51-11.98-1.48-9.8-3.69-16.42-6.65-19.84-2.96-3.43-6.04-4.46-9.27-3.12-3.22,1.34-6.28,4.6-9.17,9.77-2.89,5.17-5.07,11.38-6.55,18.63-1.07,5.91-2.01,11.72-2.82,17.42-.81,5.71-1.41,11.52-1.81,17.42l-21.35.81c0-2.68-.03-5.77-.1-9.26-.07-3.49-.17-7.15-.3-10.98-.14-3.83-.34-7.65-.6-11.48-.27-3.83-.6-7.42-1.01-10.78-1.08-7.79-2.82-13.23-5.24-16.32-2.42-3.09-5.07-4.33-7.96-3.73-2.89.6-5.77,2.82-8.66,6.65-2.89,3.83-5.27,8.83-7.15,15-1.88,6.45-3.02,13.16-3.42,20.14-.4,6.98-.2,13.97.6,20.95l-28.6,2.01-4.63-97.28,21.15-1.01,1.61,34.04c2.42-6.71,6.25-12.19,11.48-16.42,5.24-4.23,10.81-6.75,16.72-7.55,5.91-.81,11.55.34,16.92,3.43,5.37,3.09,9.4,8.53,12.09,16.31,1.61-3.76,3.89-7.15,6.85-10.17,2.95-3.02,6.27-5.47,9.97-7.35,3.69-1.88,7.62-3.02,11.79-3.42,4.16-.4,8.32.2,12.49,1.81Z"/>
  <path class="cls-1" d="M563.81,417.44c-2.69,14.64-4.13,29.31-4.33,44.01-.2,14.7.63,29.37,2.52,44.01l-20.95,2.01c-2.28-15.44-3.26-30.92-2.92-46.43.33-15.51,1.98-30.98,4.94-46.42l20.75,2.82Z"/>
  <path class="cls-1" d="M667.73,510.29c-9.93-1.07-19.61-4.23-29-9.47-9.4-5.24-17.86-11.61-25.38-19.13-3.89,6.18-7.55,12.46-10.98,18.83-3.43,6.38-6.75,12.92-9.97,19.64l-18.73-8.86c3.63-8.06,7.62-16.01,11.99-23.87,4.36-7.86,9.09-15.61,14.2-23.26-5.24-7.65-9.6-16.04-13.09-25.18s-6.91-19.54-10.27-31.22l20.34-5.84c4.03,15.17,9.4,29.74,16.12,43.71,6.98-8.46,14.53-16.14,22.66-23.06,8.12-6.91,17.42-13.19,27.9-18.83l9.47,19.13c-9.27,4.43-17.83,10.24-25.68,17.42-7.86,7.18-15.01,15.01-21.45,23.46h-.2c1.74,2.96,4.3,5.88,7.66,8.76,3.35,2.89,7.08,5.51,11.18,7.85,4.09,2.35,8.32,4.3,12.69,5.84,4.36,1.55,8.36,2.52,11.98,2.92l-1.41,21.15Z"/>
  <g>
    <path class="cls-1" d="M445.06,631.33c-9.96,9.79-21.96,12.83-32.59,12.83-24.32,0-45.6-13.34-45.6-43.4,0-28.03,21.11-43.74,45.43-43.74,12.16,0,21.79,2.7,30.23,11.48l-13.51,15.37c-5.07-3.88-10.64-4.9-15.71-4.9-12.16,0-21.96,7.94-21.96,21.79s10.13,20.94,21.45,20.94c5.4,0,12.83-2.2,16.89-6.25l15.37,15.88Z"/>
    <path class="cls-1" d="M472.59,524.08v45.09c6.92-8.95,16.89-11.65,25.33-11.65,19.59,0,33.27,10.3,33.27,40.03v44.75h-24.32v-44.59c0-11.65-6.25-18.07-15.87-18.07-10.13,0-18.58,7.09-18.58,20.44v42.22h-24.32v-118.22h24.49Z"/>
    <path class="cls-1" d="M567.17,536.75c0,18.24-27.7,18.24-27.7,0s27.7-18.24,27.7,0ZM541.16,558.71v83.6h24.32v-83.6h-24.32Z"/>
    <path class="cls-1" d="M649.92,631.33c-9.96,9.79-21.96,12.83-32.59,12.83-24.32,0-45.6-13.34-45.6-43.4,0-28.03,21.11-43.74,45.43-43.74,12.16,0,21.79,2.7,30.23,11.48l-13.51,15.37c-5.07-3.88-10.64-4.9-15.71-4.9-12.16,0-21.96,7.94-21.96,21.79s10.13,20.94,21.45,20.94c5.4,0,12.83-2.2,16.89-6.25l15.37,15.88Z"/>
    <path class="cls-1" d="M677.28,524.25v67.38l24.66-32.59h28.71v1.52l-30.57,37.66,35.3,42.22v1.86h-29.22l-28.88-36.65v36.65h-24.32v-118.05h24.32Z"/>
    <path class="cls-1" d="M751.59,608.53c1.18,8.11,8.95,14.69,22.63,14.69,6.59,0,15.71-1.52,21.62-6.59l13.68,15.2c-8.95,8.78-23.31,12.33-35.8,12.33-30.23,0-46.78-17.73-46.78-44.42s17.06-43.07,44.25-43.07,46.95,17.73,41.71,51.85h-61.3ZM791.11,590.79c-.51-9.12-9.79-13.34-19.93-13.34s-17.23,5.07-19.59,13.34h39.52Z"/>
    <path class="cls-1" d="M879.78,642.3v-44.08c0-12.83-5.57-19.42-17.23-19.42-11.32-.17-18.92,9.63-18.92,20.43v43.07h-23.98v-83.43h21.96l.84,10.64c7.43-9.63,16.89-12.83,27.02-12.67,18.75,0,34.79,8.78,34.79,41.21v44.25h-24.49Z"/>
  </g>
  <polygon class="cls-3" points="548.86 387.16 569.6 389.58 565.97 411.33 545.03 408.51 548.86 387.16"/>
  <text class="cls-6" transform="translate(703.42 499.16)"><tspan class="cls-5" x="0" y="0">d</tspan><tspan x="30.46" y="0">öner</tspan></text>
</svg>