<svg xmlns="http://www.w3.org/2000/svg" width="240.741" height="144.269" viewBox="0 0 240.741 144.269"><g transform="matrix(0.995, 0.105, -0.105, 0.995, -1647.015, -667.277)" opacity="0.6"><path d="M1920.746,559.057c-1.065-.159-.305.066-.919-.823a18.348,18.348,0,0,0,2.622-.191,9.7,9.7,0,0,0,7.487-7.9c.415-2.936-1.605-6.967-3.533-9.37-4.765-5.963-10.672-8.859-17.037-12.326-9.733-5.458-10.7-4.78-18.033-8.009-.953-.419-14.939-7.146-25.349-11.069-38.282-14.416-28.305-8.666-50.7-14.828-6.174-1.7-9.1-2.666-28.172-4.273-8.377-.71-22.26,1.427-27.239,8.239-3.079,4.231-3.04,7.148-2.045,11.293-4.275-2.142-8.778-4.045-13.618-4.045-3.726,0-12.2,1.823-16.022,3.775a19.409,19.409,0,0,0-5.553,4.471,9.836,9.836,0,0,0-2.1,4.6c-1.522,7.98,5.131,15.264,7.671,18.836,3.751,5.258,16.3,12.814,16.619,12.814-2.621,1.58-4.487,2.535-5.627,5.55-1.976,5.271,2.064,10.969,5.109,15.664,2.354,3.638,7.036,8.321,13.88,12.17,8.14,4.568,8.775,3.438,25.149,8.407,13.022,3.939,4.848,1.553,34.185,8.655,11.7,2.886,24.625,5,35.647,7.047,13.023,2.425,12.4,1.136,24.738,1.883,19.243,1.194,16.823,1.581,21.03,1.438,5.6-.185,10.452-4.381,11.4-8.5a13.146,13.146,0,0,0-.1-4.971,2.289,2.289,0,0,0,1.508-2.57c8.129,1.922,7.582,1.218,20.088.215,12.224-1,16.872-6.56,17.762-14.264C1950.961,569.55,1931.956,560.709,1920.746,559.057Zm-35.833,9.47c1.079-2.529,3.3-10.888,2.19-13.884a6.253,6.253,0,0,0-3.086-3.053c29.937,8.772,27.055,7.646,26.836,8.116-10.342-2.919-12.332,14.426-24.537,15.466-.628-.024-1.281.085-2.673-1.947C1883.192,572.25,1884.251,570.079,1884.913,568.526Zm-33.2-21.95c-1.04-3.356-2.81-5.433-4.771-6.448,8.735,2.539,4.183,1.806,33.551,10.426-3.414-.346-7.676.935-11.708,5.653-2.155,2.516-4.165,5.594-7.786,7.922a17.859,17.859,0,0,1-7.039,2.277,4.555,4.555,0,0,1-4.144-3.751C1850.043,559.167,1854.059,554.123,1851.709,546.576Zm-77.18-51.076c7.391-1.863,12.2-1.105,21.7-.095,17.322,1.866,18.918,4.5,31.4,6.793,11.785,2.191,15.875,3.9,28.217,8.488,30.69,11.379,27.736,11.353,36.625,14.712,7.6,2.87,8.133,3.143,13.015,5.787,6.547,3.7,17.447,9.282,18.5,17.8-.085,1.422-.867,2.172-2.07,3.039a6.614,6.614,0,0,1-2.659.694c-2.251.274-38.332-4.909-64.937-14.046a115.652,115.652,0,0,0-12.914-3.621c-15.48-3.838-12.143-3.973-24.9-7.276-15.244-3.947-19.726-6.022-30.227-9.094-4.33-1.27-6.178-1.388-21.578-5.589a2.382,2.382,0,0,0-1.049-.067C1762.461,508.484,1757.4,500.362,1774.529,495.5Zm131,106.229a8.626,8.626,0,0,1-5.267,4.706c-3.548.721-4.994.017-19.872-1.052-10.884-.783-13.237-.688-17.11-.99-9.615-.739-58.84-10.6-77.276-16.539-17.253-5.555-18.273-3.636-28.981-10.812-7.153-4.788-11.97-12.667-13.275-16.788-1.24-5.913,4.928-7.886,4.929-7.909,1.414.716,15.008,3.165,18.179,4.02,39.2,9.737,24.267,8.219,70.427,20.463,31.645,8.406,40.144,7.606,56.929,15,4.81,2.107,8.353,3.732,10.953,4.731A21.283,21.283,0,0,1,1905.525,601.729Zm38.387-18.786a7.03,7.03,0,0,1-1.611,3.155,13.75,13.75,0,0,1-6.17,3.457c-3.377.862-15.119,1.966-17.215,2.033-7.5-.361-26.944-5.276-29.41-6.271-12.294-4.952-31.093-7.476-51.494-13.263-9.589-2.727-16.423-3.913-25.866-7.1-13.021-4.372-17.154-6.157-28.171-8.833-39.916-10.355-29.475-6.087-37.235-10.628a45.619,45.619,0,0,1-8.591-5.925,30.613,30.613,0,0,1-5.293-5.071c-3.821-5.2-5.177-6.526-6.506-10.616-1.11-4.438-.248-5.685,1-7.088,3.736-3.595,6.649-4.046,12.223-5.359,4.74-1.11,7.439-1.4,13.251,1.074,4.48,1.9,23.022,6.562,40.738,12.212,3.511,1.123,10.225,3.338,16.987,5.17,20.179,5.462,14.669,5.045,33.582,9.5-6.771-.246-6.286,7.025-14.691,15.811-2.759,2.637-5.356,4.791-8.905,4.172-1.691-.515-1.833-.88-2.156-1.792a32.126,32.126,0,0,1-.149-5.925c.279-4.774,2.1-7.809,2.213-11.744.217-7.9-7.846-11.082-14.042-8.07-7.66,3.721-7.316,11.775-15.061,16.589-2.683,1.416-6.395.717-9.127-.629-1.526-.961-1.91-2.491-2.05-4.325.156-5.308,3.725-9.141,3.9-13.389.353-8.7-9.18-9.459-16.577-2.662-4.452,4.106-4.393,5.5-10.633,7.432-6.445,1.674-10.915-.292-11.366-6.857.017-4.707,1.429-6.141.815-7.594a2.342,2.342,0,0,0-4.334.061,40.057,40.057,0,0,0-.986,4.488c-2.05,16.122,14.4,19.761,25.452,10.4,3.358-2.835,4.358-5.686,9.932-7.5a3.158,3.158,0,0,1,2.622.29c2.444,2.979-6.61,11.142-2.573,20.262,2.167,4.894,9.822,6.479,14.391,5.566,5-1.012,9.111-6.036,11.675-10.467,2.383-4.125,4.07-6.445,7.3-7.513,2.864-.62,5.049.575,5.662,2.176.77,3.751-2.126,7.313-2.286,14.562-.08,3.96-.108,8.167,3.467,10.306,7.968,4.752,16.508-3.11,21.594-10.828,3.8-5.76,4.02-8.753,6.848-7.539,1.869,1.268,2.527,4.265,2.668,6.4-.106,6.123-4.083,9.163-2.214,14.256a10.853,10.853,0,0,0,3.468,4.3c3.181,2.321,6.382,1.728,9.569.8,10.805-3.115,12.623-12.334,19.333-14.676a7.1,7.1,0,0,1,4.471.731c.209,1.264-1.042,6.7-1.288,7.76-1.366,5.025-4.725,8.73-.09,13.365,1.9,1.9,3.508,2.741,6.9,2.19a19.11,19.11,0,0,0,7.287-3.084c8.329-5.15,10.372-13.948,14.819-12a4.279,4.279,0,0,1,1.45,3.193c-.2,4.58-5.01,7.164-2.726,14.048,1.176,3.507,2.461,4.412,4.135,5.182,7.89,3.677,16.743-11.333,21.692-9.3a5.125,5.125,0,0,1,.044,1.058,2.25,2.25,0,0,0,4.472.506,7.318,7.318,0,0,0-.057-3.708,5.083,5.083,0,0,0-3.475-2.827c-8.038-2.374-14.388,9.162-20.058,9.663-.932-.047-.932-.134-1.239-.6-2.522-5.1.612-6.225,1.913-10.974a10.51,10.51,0,0,0-.932-7.883c6.962.752,16.544,2.091,25.939,10.627C1944.345,576.939,1944.908,578.455,1943.912,582.943Z" transform="translate(0)" fill="#d8d2d2"></path></g></svg>